<svg width="97" height="41" viewBox="0 0 97 41" fill="none" xmlns="http://www.w3.org/2000/svg">
<path d="M0 36.5173L1.178 35.7953L10.07 14.2493L16.53 13.6793L24.13 34.1993C24.3833 34.858 24.5607 35.2887 24.662 35.4913C24.7633 35.694 24.9533 35.9727 25.232 36.3273L25.916 37.2013L25.688 39.8993H15.01L14.63 36.2893L17.328 35.6053L16.112 31.7673L8.398 31.8813L7.562 34.2753C7.486 34.5033 7.448 34.6933 7.448 34.8453C7.448 35.0227 7.47333 35.162 7.524 35.2633C7.6 35.3393 7.714 35.4027 7.866 35.4533L10.488 36.5553L10.108 39.8993H0.152L0 36.5173ZM12.426 20.1773L9.918 27.4733L14.82 27.7013L12.426 20.1773Z" fill="#01996D"/>
<path d="M27.3947 36.4033L30.0547 35.6053V17.4033C30.0547 16.846 30.0041 16.4913 29.9027 16.3393C29.8267 16.162 29.6114 15.972 29.2567 15.7693L27.5847 14.8953L27.7747 12.0073C28.2814 11.906 28.6741 11.8427 28.9527 11.8173C32.2967 11.2093 34.6274 10.88 35.9447 10.8293C36.1981 11.412 36.3627 12.0707 36.4387 12.8053V34.3513C36.4387 34.8833 36.4767 35.238 36.5527 35.4153C36.6287 35.5927 36.8441 35.7827 37.1987 35.9853L39.0607 37.0493L38.9087 39.8993H27.5087L27.3947 36.4033Z" fill="#01996D"/>
<path d="M41.979 11.7793L48.439 10.0693L49.997 15.8453L43.575 17.5933L41.979 11.7793ZM40.383 36.4033L43.043 35.6053V26.3713C43.043 25.814 42.9923 25.4593 42.891 25.3073C42.815 25.13 42.5997 24.94 42.245 24.7373L40.573 23.8253L40.763 20.9753C42.8657 20.57 44.487 20.2787 45.627 20.1013C46.7923 19.8987 47.8563 19.7847 48.819 19.7593C49.1483 20.8487 49.351 21.6593 49.427 22.1913V34.3513C49.427 34.8833 49.465 35.238 49.541 35.4153C49.617 35.5927 49.8323 35.7827 50.187 35.9853L52.049 37.0493L51.897 39.8993H40.497L40.383 36.4033Z" fill="#01996D"/>
<path d="M53.5842 25.2313C53.3055 24.5473 53.1155 24.104 53.0142 23.9013C52.9128 23.6987 52.7228 23.42 52.4442 23.0653L51.7982 22.2293L51.9882 20.0253H61.5642L61.9442 23.2553L59.7402 23.7873L63.1982 33.5913L66.5422 24.5853C66.5928 24.4333 66.6182 24.3193 66.6182 24.2433C66.6182 24.0153 66.5042 23.8633 66.2762 23.7873L64.4902 23.0273L64.8322 20.0253H72.0522L72.4322 23.1033L64.9082 39.9753L59.4362 40.3933L53.5842 25.2313Z" fill="#01996D"/>
<path d="M82.9703 40.3553C80.0063 40.3553 77.7137 39.456 76.0923 37.6573C74.4963 35.8587 73.6983 33.376 73.6983 30.2093C73.6983 28.0053 74.091 26.118 74.8763 24.5473C75.6617 22.9513 76.7763 21.7353 78.2203 20.8993C79.6643 20.0633 81.349 19.6453 83.2743 19.6453C86.137 19.6453 88.3283 20.5573 89.8483 22.3813C91.3937 24.2053 92.1283 26.802 92.0523 30.1713L80.5003 32.2993C80.855 33.3633 81.349 34.1487 81.9823 34.6553C82.641 35.1367 83.5023 35.3773 84.5663 35.3773C85.301 35.3773 86.175 35.276 87.1883 35.0733C88.2017 34.8453 89.2277 34.5413 90.2663 34.1613L91.1403 37.9233C90.203 38.6327 88.987 39.2153 87.4923 39.6713C85.9977 40.1273 84.4903 40.3553 82.9703 40.3553ZM85.8203 26.9793C85.7697 26.0167 85.491 25.32 84.9843 24.8893C84.503 24.4333 83.819 24.2053 82.9323 24.2053C82.1977 24.2053 81.501 24.3067 80.8423 24.5093C80.3103 25.7507 80.0697 27.0933 80.1203 28.5373L85.8203 26.9793Z" fill="#01996D"/>
<g clip-path="url(#clip0)">
<path d="M78.1666 13.2571V16.8618C78.1666 16.8618 81.6233 15.4218 84.6882 15.4218C87.7531 15.4218 91.2105 16.8618 91.2105 16.8618V13.2068C91.2105 13.2068 87.9127 11.4626 84.6371 11.4626C81.363 11.4612 78.1666 13.2571 78.1666 13.2571Z" fill="#01996D"/>
<path d="M94.8721 12.3988L96.1691 11.7014L94.8721 10.9832V10.6424C94.8721 10.6424 95.2374 8.79048 93.1617 9.75888C93.0561 9.81639 92.9993 9.87462 92.9762 9.93142L84.4164 5.18433L73.1684 11.6216L77.416 13.5512V12.925C77.416 12.925 80.9798 10.9243 84.6328 10.9243C88.2851 10.9243 91.9611 12.869 91.9611 12.869V13.9625L94.3063 12.7029C94.3063 14.1616 94.3063 17.2818 94.3063 17.8023H93.5255V19.6147L94.5637 18.8972L95.7162 19.6147V17.8015H94.8721V12.3988ZM94.3056 10.3275C94.3056 10.3714 94.3056 10.4922 94.3056 10.669L93.6211 10.2894C93.8706 10.1241 94.3056 9.89475 94.3056 10.3275ZM94.0741 12.3276C93.7714 12.3276 93.5248 12.0825 93.5248 11.7798C93.5248 11.4771 93.7714 11.2312 94.0741 11.2312C94.3775 11.2312 94.6226 11.4771 94.6226 11.7798C94.6226 12.0825 94.3775 12.3276 94.0741 12.3276Z" fill="#01996D"/>
<path d="M94.8721 12.3988L96.1691 11.7014L94.8721 10.9832V10.6424C94.8721 10.6424 95.2374 8.79048 93.1617 9.75888C93.0561 9.81639 92.9993 9.87462 92.9762 9.93142L84.4164 5.18433L73.1684 11.6216L77.416 13.5512V12.925C77.416 12.925 80.9798 10.9243 84.6328 10.9243C88.2851 10.9243 91.9611 12.869 91.9611 12.869V13.9625L94.3063 12.7029C94.3063 14.1616 94.3063 17.2818 94.3063 17.8023H93.5255V19.6147L94.5637 18.8972L95.7162 19.6147V17.8015H94.8721V12.3988ZM94.3056 10.3275C94.3056 10.3714 94.3056 10.4922 94.3056 10.669L93.6211 10.2894C93.8706 10.1241 94.3056 9.89475 94.3056 10.3275ZM94.0741 12.3276C93.7714 12.3276 93.5248 12.0825 93.5248 11.7798C93.5248 11.4771 93.7714 11.2312 94.0741 11.2312C94.3775 11.2312 94.6226 11.4771 94.6226 11.7798C94.6226 12.0825 94.3775 12.3276 94.0741 12.3276Z" fill="#01996D"/>
</g>
<defs>
<clipPath id="clip0">
<rect width="23" height="23" fill="white" transform="translate(73.1684 0.899414)"/>
</clipPath>
</defs>
</svg>
